<?xml version="1.0" encoding="utf-8"?>
<!-- Generator: Adobe Illustrator 23.0.1, SVG Export Plug-In . SVG Version: 6.00 Build 0)  -->
<svg version="1.1" xmlns="http://www.w3.org/2000/svg" xmlns:xlink="http://www.w3.org/1999/xlink" x="0px" y="0px"
	 viewBox="0 0 128 128" style="enable-background:new 0 0 128 128;" xml:space="preserve">
<style type="text/css">
	.st0{fill:#141432;}
	.st1{display:none;fill:#FFFFFF;}
</style>
<g id="레이어_1">
	<path class="st0" d="M125.77,47.24C125.92,48.81,126,50.4,126,52c0,27.61-22.39,50-50,50S26,79.61,26,52C26,24.39,48.39,2,76,2
		c1.6,0,3.19,0.08,4.76,0.23C75.41,0.79,69.8,0,64,0C28.65,0,0,28.65,0,64c0,35.35,28.65,64,64,64s64-28.65,64-64
		C128,58.2,127.21,52.59,125.77,47.24z"/>
	<path class="st1" d="M125.77,47.24c-2.25-23.82-21.2-42.77-45.01-45.01C102.63,8.15,119.85,25.37,125.77,47.24z"/>
	<polygon class="st0" points="64,59.39 68.33,57 67.5,62.07 71,65.65 66.16,66.39 64,71 61.84,66.39 57,65.65 60.5,62.07 59.67,57 	
		"/>
	<polygon class="st0" points="59.45,66.16 55.13,62.68 60.6,61.21 62.67,55.85 65.54,60.63 71.13,60.78 67.45,65.21 68.83,70.67 
		63.68,68.63 58.94,71.85 	"/>
	<circle class="st1" cx="64" cy="64" r="4"/>
</g>
<g id="레이어_2">
</g>
</svg>
